<svg width="531" height="210" viewBox="0 0 531 210" fill="none" xmlns="http://www.w3.org/2000/svg">
<g clip-path="url(#clip0_101_2)">
<path d="M276.7 56H322.9C340 56 348.6 62 348.6 74V109.9C348.6 121.9 340 127.9 322.9 127.9H276.7V56ZM292.1 71.4V112.5H322.9C329.7 112.5 333.2 111.6 333.2 109.9V73.9C333.2 72.2 329.8 71.3 322.9 71.3H292.1V71.4Z" fill="#0C1C7D"/>
<path d="M351.1 56H368.2L392.2 105L416.2 56H433.3L398 127.8H386.2L351.1 56Z" fill="#0C1C7D"/>
<path d="M451.2 56V127.9H435.8V56H451.2Z" fill="#0C1C7D"/>
<path d="M505.1 56C522.2 56 530.8 62 530.8 74V76.6H515.4V74C515.4 72.3 512 71.4 505.1 71.4H484.6C477.8 71.4 474.3 72.3 474.3 74V81.7C474.3 83.4 477.7 84.3 484.6 84.3H505.1C522.2 84.3 530.8 90.3 530.8 102.3V110C530.8 122 522.2 128 505.1 128H484.6C467.5 128 458.9 122 458.9 110V107.4H474.3V110C474.3 111.7 477.7 112.6 484.6 112.6H505.1C511.9 112.6 515.4 111.7 515.4 110V102.3C515.4 100.6 512 99.7 505.1 99.7H484.6C467.5 99.7 458.9 93.7 458.9 81.7V74C458.9 62 467.5 56 484.6 56H505.1Z" fill="#0C1C7D"/>
<path d="M238.9 56H227.1L192 127.8H209.1L233 78.8L249.5 112.4H227.2L219.7 127.8H257H265.6H274.1L238.9 56Z" fill="#0C1C7D"/>
<path d="M196.4 152.4L195.4 154.1H192L198.8 142.8H202.2L209 154.1H205.4L204.4 152.4H196.4ZM203.1 150.3L200.4 145.7L197.7 150.3H203.1Z" fill="#0C1C7D"/>
<path d="M210.3 142.7H221.2C222.5 142.7 223.5 143.1 224.3 143.8C225.1 144.5 225.4 145.4 225.4 146.4V150.2C225.4 151.2 225 152 224.3 152.8C223.5 153.6 222.5 153.9 221.2 153.9H210.3V142.7ZM213.4 151.5H220.4C221 151.5 221.4 151.3 221.8 151C222.2 150.7 222.3 150.3 222.3 149.8V146.9C222.3 146.4 222.1 146 221.8 145.7C221.5 145.4 221 145.2 220.4 145.2H213.4V151.5Z" fill="#0C1C7D"/>
<path d="M237.1 153.9H234.4L230.5 147.5V154.1H227.5V142.8H230.7L235.8 151.2L240.9 142.8H244V154H241V147.4L237.1 153.9Z" fill="#0C1C7D"/>
<path d="M249.9 142.7V154H246.8V142.7H249.9Z" fill="#0C1C7D"/>
<path d="M266.9 154H263.8L255.7 146.6V154H252.6V142.7H255.7L263.8 150.1V142.7H266.9V154Z" fill="#0C1C7D"/>
<path d="M272.7 142.7V154H269.6V142.7H272.7Z" fill="#0C1C7D"/>
<path d="M278.5 149.6C277.4 149.6 276.5 149.3 275.8 148.6C275.1 147.9 274.8 147.1 274.8 146.1C274.8 145.2 275.1 144.4 275.8 143.7C276.5 143 277.3 142.7 278.5 142.7H288.1L287.2 145.1H278.8C278.6 145.1 278.4 145.2 278.2 145.4C278 145.6 277.9 145.8 277.9 146C277.9 146.2 278 146.4 278.2 146.6C278.4 146.8 278.6 146.9 278.9 146.9H285.1C286.2 146.9 287.1 147.2 287.8 147.9C288.5 148.6 288.8 149.4 288.8 150.4C288.8 151.4 288.5 152.2 287.8 152.9C287.1 153.6 286.2 154 285.1 154H275L275.9 151.6H285.1C285.4 151.6 285.6 151.5 285.8 151.3C286 151.1 286.1 150.9 286.1 150.6C286.1 150.3 286 150.1 285.8 149.9C285.6 149.7 285.4 149.6 285.1 149.6H278.5Z" fill="#0C1C7D"/>
<path d="M295.9 154V145.1H290.4L291.2 142.6H304.8L304 145.1H299V154H295.9Z" fill="#0C1C7D"/>
<path d="M317.3 142.7C318.4 142.7 319.3 143.1 320 143.7C320.7 144.4 321.1 145.2 321.1 146.2C321.1 147.2 320.8 148 320 148.7C319.3 149.4 318.4 149.8 317.3 149.8H316.6L321.2 154H317L310.5 147.6H316.9C317.3 147.6 317.6 147.5 317.8 147.2C318 147 318.1 146.7 318.1 146.4C318.1 146.1 318 145.8 317.8 145.6C317.6 145.4 317.3 145.2 316.9 145.2H310V154H306.9V142.7H317.3Z" fill="#0C1C7D"/>
<path d="M326.6 152.4L325.6 154.1H322.1L328.9 142.8H332.3L339.1 154.1H335.5L334.5 152.4H326.6ZM333.3 150.3L330.6 145.7L327.9 150.3H333.3Z" fill="#0C1C7D"/>
<path d="M340.4 142.7H351.3C352.6 142.7 353.6 143.1 354.4 143.8C355.2 144.5 355.5 145.4 355.5 146.4V150.2C355.5 151.2 355.1 152 354.4 152.8C353.6 153.6 352.6 153.9 351.3 153.9H340.4V142.7ZM343.5 151.5H350.5C351.1 151.5 351.5 151.3 351.9 151C352.3 150.7 352.4 150.3 352.4 149.8V146.9C352.4 146.4 352.2 146 351.9 145.7C351.6 145.4 351.1 145.2 350.5 145.2H343.5V151.5Z" fill="#0C1C7D"/>
<path d="M357.3 146.5C357.3 145.5 357.7 144.6 358.4 143.9C359.2 143.2 360.2 142.8 361.5 142.8H368.4C369.7 142.8 370.7 143.2 371.5 143.9C372.3 144.6 372.6 145.5 372.6 146.5V150.3C372.6 151.3 372.2 152.1 371.5 152.9C370.7 153.7 369.7 154 368.4 154H361.5C360.2 154 359.2 153.6 358.4 152.9C357.6 152.1 357.3 151.3 357.3 150.3V146.5ZM367.6 151.5C368.2 151.5 368.6 151.3 369 151C369.3 150.7 369.5 150.3 369.5 149.8V146.9C369.5 146.4 369.3 146 369 145.7C368.7 145.4 368.2 145.2 367.6 145.2H362.3C361.7 145.2 361.3 145.4 360.9 145.7C360.6 146 360.4 146.4 360.4 146.9V149.8C360.4 150.3 360.6 150.7 360.9 151C361.3 151.3 361.7 151.5 362.3 151.5H367.6Z" fill="#0C1C7D"/>
<path d="M385.4 142.7C386.5 142.7 387.4 143.1 388.1 143.7C388.8 144.4 389.2 145.2 389.2 146.2C389.2 147.2 388.9 148 388.1 148.7C387.4 149.4 386.5 149.8 385.4 149.8H384.7L389.3 154H385L378.5 147.6H384.9C385.3 147.6 385.6 147.5 385.8 147.2C386 147 386.2 146.7 386.2 146.4C386.2 146.1 386.1 145.8 385.9 145.6C385.7 145.4 385.4 145.2 385 145.2H378.1V154H375V142.7H385.4Z" fill="#0C1C7D"/>
<path d="M400.5 142.7H411.4C412.7 142.7 413.7 143.1 414.5 143.8C415.3 144.5 415.6 145.4 415.6 146.4V150.2C415.6 151.2 415.2 152 414.5 152.8C413.7 153.6 412.7 153.9 411.4 153.9H400.5V142.7ZM403.6 151.5H410.6C411.2 151.5 411.6 151.3 412 151C412.4 150.7 412.5 150.3 412.5 149.8V146.9C412.5 146.4 412.3 146 412 145.7C411.7 145.4 411.2 145.2 410.6 145.2H403.6V151.5Z" fill="#0C1C7D"/>
<path d="M430 147.2L429.2 149.5H420.9V151.5H430.7L429.9 154H417.8V142.7H430.7L429.9 145.2H420.9V147.1H430V147.2Z" fill="#0C1C7D"/>
<path d="M452.9 142.7H456.4L450.1 154H446.7L440.4 142.7H444L448.5 151.1L452.9 142.7Z" fill="#0C1C7D"/>
<path d="M460.8 142.7V154H457.7V142.7H460.8Z" fill="#0C1C7D"/>
<path d="M466.6 149.6C465.5 149.6 464.6 149.3 463.9 148.6C463.2 147.9 462.9 147.1 462.9 146.1C462.9 145.2 463.2 144.4 463.9 143.7C464.6 143 465.4 142.7 466.6 142.7H476.2L475.3 145.1H467C466.8 145.1 466.6 145.2 466.4 145.4C466.2 145.6 466.1 145.8 466.1 146C466.1 146.2 466.2 146.4 466.4 146.6C466.6 146.8 466.8 146.9 467.1 146.9H473.3C474.4 146.9 475.3 147.2 476 147.9C476.7 148.6 477 149.4 477 150.4C477 151.4 476.7 152.2 476 152.9C475.3 153.6 474.4 154 473.3 154H463.2L464.1 151.6H473.3C473.6 151.6 473.8 151.5 474 151.3C474.2 151.1 474.3 150.9 474.3 150.6C474.3 150.3 474.2 150.1 474 149.9C473.8 149.7 473.6 149.6 473.3 149.6H466.6Z" fill="#0C1C7D"/>
<path d="M482.2 142.7V154H479.1V142.7H482.2Z" fill="#0C1C7D"/>
<path d="M489.8 154V145.1H484.3L485.1 142.6H498.7L497.9 145.1H492.9V154H489.8Z" fill="#0C1C7D"/>
<path d="M503.9 152.4L502.9 154.1H499.4L506.2 142.8H509.6L516.4 154.1H512.8L511.8 152.4H503.9ZM510.6 150.3L507.9 145.7L505.2 150.3H510.6Z" fill="#0C1C7D"/>
<path d="M520.3 149.6C519.2 149.6 518.3 149.3 517.6 148.6C516.9 147.9 516.6 147.1 516.6 146.1C516.6 145.2 516.9 144.4 517.6 143.7C518.3 143 519.1 142.7 520.3 142.7H529.9L529 145.1H520.6C520.4 145.1 520.2 145.2 520 145.4C519.8 145.6 519.7 145.8 519.7 146C519.7 146.2 519.8 146.4 520 146.6C520.2 146.8 520.4 146.9 520.7 146.9H526.9C528 146.9 528.9 147.2 529.6 147.9C530.3 148.6 530.6 149.4 530.6 150.4C530.6 151.4 530.2 152.2 529.6 152.9C528.9 153.6 528 154 526.9 154H516.8L517.7 151.6H526.9C527.2 151.6 527.4 151.5 527.6 151.3C527.8 151.1 527.9 150.9 527.9 150.6C527.9 150.3 527.8 150.1 527.6 149.9C527.4 149.7 527.2 149.6 526.9 149.6H520.3Z" fill="#0C1C7D"/>
<path d="M172.3 42.2C172 31.8 171.5 21.4 171.2 10.9C171.1 8.3 169.4 6.1 166.9 5.4C154.7 1.8 120.5 0 86.3 0C52.1 0 17.9 1.8 5.7 5.4C3.2 6.1 1.5 8.4 1.4 10.9C1.1 21.3 0.5 31.7 0.3 42.2C-0.2 59.1 -0.1 76.1 0.8 93C1.8 110.4 3 129.5 8.9 146.1C20.8 179.8 55.1 197.6 86.3 210.1C117.6 197.7 151.8 179.9 163.7 146.1C169.5 129.5 170.8 110.5 171.8 93C172.8 76.1 172.8 59.1 172.3 42.2Z" fill="#3E8CCA"/>
<path d="M64.2 101.7L86.6 168.2L109.1 101.3C110.3 97.8 111.2 95.3 111.7 94C112.3 92.6 113.3 91.4 114.6 90.3C116 89.2 117.8 88.6 120.1 88.6C121.8 88.6 123.4 89 124.9 89.9C126.4 90.8 127.5 91.9 128.3 93.3C129.1 94.7 129.6 96.2 129.6 97.6C129.6 98.6 129.5 99.7 129.2 100.8C128.9 101.9 128.6 103.1 128.2 104.2C127.8 105.3 127.4 106.4 127 107.6L103 172.4C102.1 174.9 101.3 177.2 100.4 179.5C99.5 181.7 98.6 183.7 97.4 185.4C96.3 187.1 94.8 188.5 92.9 189.6C91 190.7 88.7 191.2 86 191.2C83.3 191.2 81 190.7 79.1 189.6C77.2 188.5 75.7 187.1 74.6 185.4C73.5 183.7 72.4 181.7 71.6 179.5C70.7 177.3 69.9 174.9 69 172.5L45.4 108.3C45 107.1 44.6 106 44.1 104.9C43.7 103.8 43.3 102.6 43 101.2C42.7 99.9 42.6 98.8 42.6 97.9C42.6 95.6 43.5 93.5 45.4 91.6C47.2 89.7 49.6 88.8 52.4 88.8C55.8 88.8 58.2 89.8 59.7 91.9C61.3 93.8 62.7 97.1 64.2 101.7Z" fill="white"/>
<path d="M63.3 48.2C63.3 49.7 71.1 63.9 86.2 64C101.3 64 109.1 49.7 109.1 48.2C94.2 52.5 78.3 52.5 63.3 48.2Z" fill="white"/>
<path d="M113.1 32.5L87.7 19.3C86.8 18.8 85.7 18.8 84.8 19.3L59.5 32.5C57.7 33.4 57.3 35.8 58.6 37.3L62.4 41.5C62.7 41.8 63 42 63.3 42.2C63.3 42.9 63.3 43.5 63.3 44.2C78.3 49.1 94.4 49.1 109.3 44.2C109.3 43.5 109.3 42.9 109.3 42.2C109.6 42 109.9 41.8 110.2 41.5L114 37.3C115.3 35.8 114.9 33.4 113.1 32.5ZM86.3 42.3C83.7 42.3 80.4 34.1 80.4 33.1C81.9 31.1 84.1 30.1 86.3 30.1C88.5 30.1 90.7 31.1 92.2 33.1C92.2 34 88.9 42.3 86.3 42.3Z" fill="white"/>
<path d="M108.2 54.3C105.7 58.7 98.3 67.8 86.3 67.8C74.4 67.8 67 58.9 64.4 54.4C63.1 57.3 62.4 60.5 62.4 63.9C62.4 77.1 73.1 87.8 86.3 87.8C99.5 87.8 110.2 77.1 110.2 63.9C110.2 60.5 109.5 57.3 108.2 54.3Z" fill="white"/>
</g>
<defs>
<clipPath id="clip0_101_2">
<rect width="530.7" height="210" fill="white"/>
</clipPath>
</defs>
</svg>
